<?xml version="1.0" encoding="UTF-8"?>
<svg version="1.1" xmlns="http://www.w3.org/2000/svg" width="400" height="285">
<path d="M0 0 C1.38671875 2.3984375 1.38671875 2.3984375 2.6875 5.375 C3.12449219 6.35210937 3.56148438 7.32921875 4.01171875 8.3359375 C5 11 5 11 5 14 C5.89976562 13.62488281 6.79953125 13.24976563 7.7265625 12.86328125 C15.63649943 9.67416231 23.56238663 7.16970931 31.875 5.25 C32.7098291 5.05188721 33.5446582 4.85377441 34.40478516 4.6496582 C49.15504279 1.39146297 64.12825579 0.61552263 79.1875 0.6875 C79.98782654 0.68932281 80.78815308 0.69114563 81.61273193 0.69302368 C106.28611747 0.78710334 130.83752189 3.42139833 153 15 C153.38671875 13.92878906 153.7734375 12.85757813 154.171875 11.75390625 C154.69708978 10.35645978 155.22317694 8.95934096 155.75 7.5625 C156.00265625 6.85544922 156.2553125 6.14839844 156.515625 5.41992188 C157.296875 3.37890625 157.296875 3.37890625 159 0 C160.88525391 -0.82641602 160.88525391 -0.82641602 163 -1 C165.69109124 0.40198131 168.10900864 1.83147267 170.625 3.5 C171.70503296 4.19512695 171.70503296 4.19512695 172.80688477 4.90429688 C176.5812748 7.34961662 180.2848976 9.87567772 183.9375 12.5 C204.24744933 26.91461169 228.63597179 39.02852482 254.25 35.3125 C259.30917908 34.31848785 264.03404252 32.70532224 268.8203125 30.8046875 C271 30 271 30 273 30 C269.12461832 38.43356871 262.82714542 41.92853715 254.37890625 45.15234375 C253.59386719 45.43207031 252.80882812 45.71179688 252 46 C252.80824219 46.31453125 253.61648438 46.6290625 254.44921875 46.953125 C255.51785156 47.38109375 256.58648437 47.8090625 257.6875 48.25 C258.74324219 48.66765625 259.79898437 49.0853125 260.88671875 49.515625 C265.34109179 51.63941641 268.26097531 53.89146297 271 58 C271 59.32 271 60.64 271 62 C270.28293884 61.927314 269.56587769 61.85462799 268.8270874 61.77973938 C261.23157364 61.07021397 253.76368035 60.92165304 246.140625 61.04296875 C243.70052898 61.06535922 241.26042423 61.08681438 238.8203125 61.10742188 C235.0378382 61.14438496 231.25582504 61.18740849 227.47363281 61.24682617 C193.99376497 61.7463629 193.99376497 61.7463629 179 53 C178.29423828 54.37285156 178.29423828 54.37285156 177.57421875 55.7734375 C176.94571171 56.97416738 176.31678337 58.1746768 175.6875 59.375 C175.2244043 60.27992188 175.2244043 60.27992188 174.75195312 61.203125 C173.07390572 64.38258325 172.05193672 65.96537552 169 68 C156.90638841 69.59596105 146.11111904 66.23061293 134.6875 62.6875 C96.38253846 50.97788763 62.66640587 51.60314246 24.22070312 63.21118164 C1.31131552 70.10815491 1.31131552 70.10815491 -9 68 C-12.0207447 65.87993606 -13.46019948 62.6404696 -15.1875 59.4375 C-15.71730469 58.46683594 -16.24710937 57.49617188 -16.79296875 56.49609375 C-18 54 -18 54 -18 52 C-18.78761719 52.39832031 -19.57523437 52.79664063 -20.38671875 53.20703125 C-21.47597656 53.73683594 -22.56523438 54.26664063 -23.6875 54.8125 C-25.27111328 55.59560547 -25.27111328 55.59560547 -26.88671875 56.39453125 C-36.6114911 60.53419411 -46.64956583 61.43149099 -57.09765625 61.2578125 C-58.89184242 61.24788773 -58.89184242 61.24788773 -60.72227478 61.23776245 C-64.50262663 61.21460029 -68.2823628 61.17096059 -72.0625 61.125 C-75.84613176 61.08969997 -79.62972451 61.0588878 -83.41343689 61.03366089 C-85.75428338 61.01695415 -88.0950975 60.9940487 -90.43580627 60.96365356 C-97.67996732 60.89809371 -104.79230546 61.27223889 -112 62 C-111.10499793 56.75415906 -109.44882272 55.00544157 -105.41015625 51.6484375 C-101.55931107 49.01463415 -97.41059695 47.45513547 -93 46 C-94.14275391 45.61521484 -94.14275391 45.61521484 -95.30859375 45.22265625 C-103.16733348 42.30874152 -108.80999334 38.6709934 -114 32 C-114 31.34 -114 30.68 -114 30 C-110.33966723 30.63428149 -107.09123065 31.67953118 -103.625 33 C-84.48897404 39.37867532 -64.41773163 34.56289709 -46.80810547 25.92480469 C-36.2131547 20.5019929 -26.38569029 14.08052432 -16.69335938 7.19824219 C-14.37831498 5.56008794 -12.03896303 3.9603412 -9.6875 2.375 C-9.03136719 1.92898437 -8.37523438 1.48296875 -7.69921875 1.0234375 C-4.65345835 -0.81102049 -3.42307822 -1.14102607 0 0 Z " fill="#A32F34" transform="translate(123,198)"/>
<path d="M0 0 C5.08467074 2.16705168 9.3315459 5.31891063 13.83203125 8.5 C36.57172713 24.24894755 61.73768674 40.02437381 90.76953125 35.8125 C95.82871033 34.81848785 100.55357377 33.20532224 105.33984375 31.3046875 C107.51953125 30.5 107.51953125 30.5 109.51953125 30.5 C105.64414957 38.93356871 99.34667667 42.42853715 90.8984375 45.65234375 C90.11339844 45.93207031 89.32835937 46.21179688 88.51953125 46.5 C89.73189453 46.91958984 89.73189453 46.91958984 90.96875 47.34765625 C97.93511061 49.96109189 101.99779966 51.8338652 105.51953125 58.5 C105.51953125 59.16 105.51953125 59.82 105.51953125 60.5 C97.51261486 60.5466293 89.50575655 60.58202293 81.49873734 60.60362434 C77.77954514 60.61399926 74.0604468 60.62804128 70.34130859 60.65087891 C66.74270473 60.67283455 63.14419034 60.68461574 59.5455246 60.68975449 C57.52513169 60.6951718 55.50477406 60.71074705 53.48443604 60.72659302 C43.32734226 60.72781037 33.35039385 60.19186793 23.95703125 56 C22.98636719 55.5771875 22.01570312 55.154375 21.015625 54.71875 C18.51953125 53.5 18.51953125 53.5 15.51953125 51.5 C15.84530756 44.33292123 19.17396753 38.73072876 22.51953125 32.5 C21.52953125 32.83 20.53953125 33.16 19.51953125 33.5 C11.53469019 34.42424157 4.92047652 32.34847378 -2.48046875 29.5 C-2.48046875 28.84 -2.48046875 28.18 -2.48046875 27.5 C-3.15198975 27.31824219 -3.82351074 27.13648438 -4.51538086 26.94921875 C-9.26314281 25.65989703 -14.00534122 24.35653559 -18.734375 23 C-27.44026049 20.52453493 -36.10792515 18.17781182 -45.04296875 16.6875 C-45.7069165 16.57599609 -46.37086426 16.46449219 -47.05493164 16.34960938 C-87.13165307 10.18018149 -126.78277124 15.78561406 -164.97265625 28.3984375 C-168.48046875 29.5 -168.48046875 29.5 -170.48046875 29.5 C-169.38238287 23.84917605 -165.8629051 20.3312757 -161.38671875 16.890625 C-151.80413977 10.69389059 -140.6716902 7.86987326 -129.66796875 5.3125 C-129.01892578 5.15765137 -128.36988281 5.00280273 -127.70117188 4.84326172 C-113.43936689 1.72561215 -98.83827102 1.11797907 -84.29296875 1.1875 C-83.49264221 1.18932281 -82.69231567 1.19114563 -81.86773682 1.19302368 C-57.19435128 1.28710334 -32.64294686 3.92139833 -10.48046875 15.5 C-10.07054687 14.42878906 -9.660625 13.35757813 -9.23828125 12.25390625 C-8.69437467 10.85662899 -8.15008392 9.45950123 -7.60546875 8.0625 C-7.20134766 7.00192383 -7.20134766 7.00192383 -6.7890625 5.91992188 C-4.13906821 -0.83433186 -4.13906821 -0.83433186 0 0 Z " fill="#A62C31" transform="translate(286.48046875,197.5)"/>
<path d="M0 0 C4.16642571 3.93157499 7.27758571 7.9906155 7.80078125 13.85546875 C7.98173779 21.50590895 7.98173779 21.50590895 5.55859375 25.140625 C5.31803907 27.19772096 5.31803907 27.19772096 5.43359375 29.328125 C5.47484375 30.58625 5.51609375 31.844375 5.55859375 33.140625 C1.82371598 32.6426413 -0.2537826 32.26570744 -3.44140625 30.140625 C-3.66226265 27.18998352 -3.72201614 24.45694269 -3.62890625 21.515625 C-3.61537109 20.71382812 -3.60183594 19.91203125 -3.58789062 19.0859375 C-3.55249676 17.10388122 -3.49868859 15.12216949 -3.44140625 13.140625 C-4.10140625 13.140625 -4.76140625 13.140625 -5.44140625 13.140625 C-5.44140625 18.420625 -5.44140625 23.700625 -5.44140625 29.140625 C-7.75140625 28.810625 -10.06140625 28.480625 -12.44140625 28.140625 C-12.50199219 26.85285156 -12.56257813 25.56507813 -12.625 24.23828125 C-12.70938872 22.55988341 -12.79403755 20.88149864 -12.87890625 19.203125 C-12.91822266 18.35298828 -12.95753906 17.50285156 -12.99804688 16.62695312 C-13.03994141 15.81806641 -13.08183594 15.00917969 -13.125 14.17578125 C-13.16165771 13.4269165 -13.19831543 12.67805176 -13.23608398 11.90649414 C-13.25911688 10.11601174 -13.25911688 10.11601174 -14.44140625 9.140625 C-14.77140625 15.080625 -15.10140625 21.020625 -15.44140625 27.140625 C-18.41140625 26.480625 -21.38140625 25.820625 -24.44140625 25.140625 C-24.44140625 18.210625 -24.44140625 11.280625 -24.44140625 4.140625 C-25.10140625 4.140625 -25.76140625 4.140625 -26.44140625 4.140625 C-26.44140625 10.740625 -26.44140625 17.340625 -26.44140625 24.140625 C-29.41140625 23.810625 -32.38140625 23.480625 -35.44140625 23.140625 C-35.50199219 21.70847656 -35.56257813 20.27632812 -35.625 18.80078125 C-35.70938729 16.93488459 -35.79403618 15.06899976 -35.87890625 13.203125 C-35.91822266 12.25759766 -35.95753906 11.31207031 -35.99804688 10.33789062 C-36.03994141 9.43876953 -36.08183594 8.53964844 -36.125 7.61328125 C-36.16165771 6.78062744 -36.19831543 5.94797363 -36.23608398 5.09008789 C-36.23507728 3.13723642 -36.23507728 3.13723642 -37.44140625 2.140625 C-37.77140625 9.070625 -38.10140625 16.000625 -38.44140625 23.140625 C-41.74140625 22.810625 -45.04140625 22.480625 -48.44140625 22.140625 C-48.77140625 14.880625 -49.10140625 7.620625 -49.44140625 0.140625 C-50.10140625 -0.189375 -50.76140625 -0.519375 -51.44140625 -0.859375 C-51.44140625 6.400625 -51.44140625 13.660625 -51.44140625 21.140625 C-55.40140625 21.140625 -59.36140625 21.140625 -63.44140625 21.140625 C-63.44140625 13.550625 -63.44140625 5.960625 -63.44140625 -1.859375 C-64.10140625 -1.529375 -64.76140625 -1.199375 -65.44140625 -0.859375 C-65.77140625 6.400625 -66.10140625 13.660625 -66.44140625 21.140625 C-69.74140625 21.140625 -73.04140625 21.140625 -76.44140625 21.140625 C-76.93640625 10.745625 -76.93640625 10.745625 -77.44140625 0.140625 C-78.10140625 -0.189375 -78.76140625 -0.519375 -79.44140625 -0.859375 C-79.44140625 6.730625 -79.44140625 14.320625 -79.44140625 22.140625 C-83.07140625 22.140625 -86.70140625 22.140625 -90.44140625 22.140625 C-90.77140625 15.540625 -91.10140625 8.940625 -91.44140625 2.140625 C-91.77140625 2.140625 -92.10140625 2.140625 -92.44140625 2.140625 C-92.77140625 9.070625 -93.10140625 16.000625 -93.44140625 23.140625 C-97.89640625 23.635625 -97.89640625 23.635625 -102.44140625 24.140625 C-102.77140625 17.870625 -103.10140625 11.600625 -103.44140625 5.140625 C-104.10140625 4.810625 -104.76140625 4.480625 -105.44140625 4.140625 C-105.44140625 11.070625 -105.44140625 18.000625 -105.44140625 25.140625 C-108.08140625 25.800625 -110.72140625 26.460625 -113.44140625 27.140625 C-113.77140625 21.200625 -114.10140625 15.260625 -114.44140625 9.140625 C-115.10140625 8.810625 -115.76140625 8.480625 -116.44140625 8.140625 C-116.44140625 14.410625 -116.44140625 20.680625 -116.44140625 27.140625 C-120.44140625 29.140625 -120.44140625 29.140625 -123.44140625 29.140625 C-123.77140625 24.520625 -124.10140625 19.900625 -124.44140625 15.140625 C-124.77140625 15.140625 -125.10140625 15.140625 -125.44140625 15.140625 C-125.44398438 16.18863281 -125.4465625 17.23664063 -125.44921875 18.31640625 C-125.48674117 19.69535527 -125.52588866 21.07426074 -125.56640625 22.453125 C-125.56382812 23.14341797 -125.56125 23.83371094 -125.55859375 24.54492188 C-125.63671875 26.56640625 -125.63671875 26.56640625 -126.44140625 30.140625 C-129.19535664 32.00229546 -131.08534479 33.140625 -134.44140625 33.140625 C-134.57417969 32.43035156 -134.70695313 31.72007812 -134.84375 30.98828125 C-135.10865234 29.60962891 -135.10865234 29.60962891 -135.37890625 28.203125 C-135.55292969 27.28660156 -135.72695312 26.37007812 -135.90625 25.42578125 C-136.21855613 23.18772656 -136.21855613 23.18772656 -137.44140625 22.140625 C-137.95244063 16.75381999 -138.19515929 11.80516296 -135.94140625 6.828125 C-106.04351432 -25.31210883 -34.47624239 -26.25710621 0 0 Z " fill="#183866" transform="translate(266.44140625,173.859375)"/>
<path d="M0 0 C13.67764845 10.94211876 19.73185404 27.51339996 24.7890625 43.65234375 C25.9065897 46.74176571 27.27982725 49.22087698 29 52 C29 52.66 29 53.32 29 54 C28.32710938 53.73058594 27.65421875 53.46117187 26.9609375 53.18359375 C25.98382813 52.79300781 25.00671875 52.40242188 24 52 C22.85789062 51.53722656 21.71578125 51.07445312 20.5390625 50.59765625 C11.45326312 46.99847881 2.69187982 44.50353939 -7 43 C-8.14726562 42.81566406 -9.29453125 42.63132813 -10.4765625 42.44140625 C-17.07207285 41.65301932 -23.74125385 41.75562545 -30.375 41.75 C-31.44547073 41.74898788 -31.44547073 41.74898788 -32.53756714 41.74795532 C-50.61562701 41.77509537 -69.19852731 43.37928035 -85 53 C-85.66 53 -86.32 53 -87 53 C-85.74368034 47.71944706 -83.99397748 42.59465718 -82.3125 37.4375 C-81.98572266 36.40302734 -81.65894531 35.36855469 -81.32226562 34.30273438 C-75.90428624 17.75873233 -66.79501173 2.96169997 -51.0625 -5.25 C-33.86504914 -13.37042797 -15.4502798 -11.30642145 0 0 Z M-40 23 C-40.33 24.98 -40.66 26.96 -41 29 C-40.01 29.33 -39.02 29.66 -38 30 C-38 28.02 -38 26.04 -38 24 C-38.66 23.67 -39.32 23.34 -40 23 Z M-31 23 C-31 25.31 -31 27.62 -31 30 C-30.01 29.67 -29.02 29.34 -28 29 C-28 27.02 -28 25.04 -28 23 C-28.99 23 -29.98 23 -31 23 Z M-21 23 C-22.00217064 26.58327753 -22.00217064 26.58327753 -21 30 C-20.34 30 -19.68 30 -19 30 C-19 27.69 -19 25.38 -19 23 C-19.66 23 -20.32 23 -21 23 Z M-48 24 C-49.35618499 25.12534105 -49.35618499 25.12534105 -49.0625 28.0625 C-49.041875 29.031875 -49.02125 30.00125 -49 31 C-48.34 31 -47.68 31 -47 31 C-47 28.69 -47 26.38 -47 24 C-47.33 24 -47.66 24 -48 24 Z M-12 24 C-13.29633621 25.06645115 -13.29633621 25.06645115 -13.0625 27.5625 C-13.041875 28.366875 -13.02125 29.17125 -13 30 C-12.01 30 -11.02 30 -10 30 C-10.33 28.02 -10.66 26.04 -11 24 C-11.33 24 -11.66 24 -12 24 Z M-57 26 C-57.33 27.98 -57.66 29.96 -58 32 C-57.01 32 -56.02 32 -55 32 C-55 30.35 -55 28.7 -55 27 C-55.66 26.67 -56.32 26.34 -57 26 Z M-4 26 C-4 27.98 -4 29.96 -4 32 C-3.01 32.495 -3.01 32.495 -2 33 C-2 30.69 -2 28.38 -2 26 C-2.66 26 -3.32 26 -4 26 Z M-65 28 C-66.29633621 29.06645115 -66.29633621 29.06645115 -66.0625 31.5625 C-66.041875 32.366875 -66.02125 33.17125 -66 34 C-65.01 34.495 -65.01 34.495 -64 35 C-64 32.69 -64 30.38 -64 28 C-64.33 28 -64.66 28 -65 28 Z M5 28 C4.32041397 30.39719432 4.32041397 30.39719432 4 33 C4.66 33.66 5.32 34.32 6 35 C6.67958603 32.60280568 6.67958603 32.60280568 7 30 C6.34 29.34 5.68 28.68 5 28 Z M-73 32 C-73 33.65 -73 35.3 -73 37 C-72.34 36.67 -71.68 36.34 -71 36 C-71.66 34.68 -72.32 33.36 -73 32 Z M13 32 C12.67 33.65 12.34 35.3 12 37 C12.66 37 13.32 37 14 37 C14 35.35 14 33.7 14 32 C13.67 32 13.34 32 13 32 Z " fill="#183866" transform="translate(232,113)"/>
<path d="M0 0 C1.19630944 2.35477941 2.21952671 4.61747116 3.1875 7.0625 C3.46013672 7.72572266 3.73277344 8.38894531 4.01367188 9.07226562 C4.6856086 10.71084817 5.34409628 12.35493403 6 14 C3.72569089 16.32834237 1.51878997 18.37318329 -1.0625 20.375 C-4.12155521 23.1086238 -5.29617465 25.32944449 -7 29 C-6.38294189 28.78384033 -5.76588379 28.56768066 -5.13012695 28.3449707 C34.04992075 14.71287759 34.04992075 14.71287759 48.875 14.9375 C50.04675781 14.95103516 50.04675781 14.95103516 51.2421875 14.96484375 C51.82226562 14.97644531 52.40234375 14.98804688 53 15 C53 15.33 53 15.66 53 16 C52.32348389 16.10957031 51.64696777 16.21914062 50.94995117 16.33203125 C32.33920558 19.40803254 14.60432142 24.03778053 -3.35693359 29.74951172 C-5.23444346 30.34421219 -7.11698147 30.92297905 -9 31.5 C-10.3921875 31.94859375 -10.3921875 31.94859375 -11.8125 32.40625 C-16.53486525 33.28590627 -21.21081283 33.11504275 -26 33 C-24.08670068 36.8558471 -22.16875779 40.70936663 -20.25 44.5625 C-19.71117188 45.64853516 -19.17234375 46.73457031 -18.6171875 47.85351562 C-15.26622806 54.5849944 -15.26622806 54.5849944 -11.609375 61.15234375 C-10 64 -10 64 -10 66 C-1.63274335 66.3048798 5.6175937 66.35295913 13.6328125 63.65625 C16.18661028 62.94826646 18.36272201 62.88737603 21 63 C14.22081112 67.51945925 6.47545199 68.29375601 -1.5 68.375 C-2.19440186 68.38869629 -2.88880371 68.40239258 -3.60424805 68.41650391 C-6.35011063 68.39156909 -8.44245623 68.37046507 -10.76953125 66.82421875 C-12.38742364 64.42562908 -13.81376774 61.98484056 -15.1875 59.4375 C-15.71730469 58.46683594 -16.24710937 57.49617188 -16.79296875 56.49609375 C-18 54 -18 54 -18 52 C-18.78761719 52.39832031 -19.57523437 52.79664063 -20.38671875 53.20703125 C-21.47597656 53.73683594 -22.56523438 54.26664063 -23.6875 54.8125 C-25.27111328 55.59560547 -25.27111328 55.59560547 -26.88671875 56.39453125 C-36.6114911 60.53419411 -46.64956583 61.43149099 -57.09765625 61.2578125 C-58.89184242 61.24788773 -58.89184242 61.24788773 -60.72227478 61.23776245 C-64.50262663 61.21460029 -68.2823628 61.17096059 -72.0625 61.125 C-75.84613176 61.08969997 -79.62972451 61.0588878 -83.41343689 61.03366089 C-85.75428338 61.01695415 -88.0950975 60.9940487 -90.43580627 60.96365356 C-97.67996732 60.89809371 -104.79230546 61.27223889 -112 62 C-111.10499793 56.75415906 -109.44882272 55.00544157 -105.41015625 51.6484375 C-101.55931107 49.01463415 -97.41059695 47.45513547 -93 46 C-94.14275391 45.61521484 -94.14275391 45.61521484 -95.30859375 45.22265625 C-103.16733348 42.30874152 -108.80999334 38.6709934 -114 32 C-114 31.34 -114 30.68 -114 30 C-110.33966723 30.63428149 -107.09123065 31.67953118 -103.625 33 C-84.48897404 39.37867532 -64.41773163 34.56289709 -46.80810547 25.92480469 C-36.2131547 20.5019929 -26.38569029 14.08052432 -16.69335938 7.19824219 C-14.37831498 5.56008794 -12.03896303 3.9603412 -9.6875 2.375 C-9.03136719 1.92898437 -8.37523438 1.48296875 -7.69921875 1.0234375 C-4.65345835 -0.81102049 -3.42307822 -1.14102607 0 0 Z " fill="#AD3F44" transform="translate(123,198)"/>
<path d="M0 0 C0.80032654 0.00182281 1.60065308 0.00364563 2.42523193 0.00552368 C28.57685951 0.10523988 62.09727466 1.59727466 81.8125 21.3125 C83.8125 24.3125 83.8125 24.3125 83.8125 27.3125 C82.34893406 26.87377887 80.88539908 26.43495449 79.421875 25.99609375 C78.04612305 25.58399658 78.04612305 25.58399658 76.64257812 25.16357422 C74.88496058 24.63501532 73.12826506 24.10336734 71.37304688 23.56689453 C61.44184137 20.53693063 51.53171372 17.87328588 41.3125 16 C40.45430664 15.84088135 39.59611328 15.6817627 38.71191406 15.51782227 C-1.60999462 8.51888187 -42.22306143 14.51001854 -80.6796875 27.2109375 C-84.1875 28.3125 -84.1875 28.3125 -86.1875 28.3125 C-85.08941412 22.66167605 -81.56993635 19.1437757 -77.09375 15.703125 C-67.51117102 9.50639059 -56.37872145 6.68237326 -45.375 4.125 C-44.72595703 3.97015137 -44.07691406 3.81530273 -43.40820312 3.65576172 C-29.14639814 0.53811215 -14.54530227 -0.06952093 0 0 Z " fill="#193866" transform="translate(202.1875,198.6875)"/>
<path d="M0 0 C1.19367188 -0.02578125 2.38734375 -0.0515625 3.6171875 -0.078125 C8.39561195 0.36885457 11.7300909 1.8550909 15.125 5.25 C15.52353754 9.31508288 15.32017293 11.81899311 13.625 15.5625 C11.71194883 20.26541745 11.85313466 24.24566384 12.125 29.25 C12.785 29.25 13.445 29.25 14.125 29.25 C14.455 30.57 14.785 31.89 15.125 33.25 C13.40990234 33.00636719 13.40990234 33.00636719 11.66015625 32.7578125 C7.27859668 32.21192592 2.97345501 32.10104911 -1.4375 32.125 C-2.15357422 32.12113281 -2.86964844 32.11726563 -3.60742188 32.11328125 C-8.12867635 32.12150919 -12.41405679 32.51139442 -16.875 33.25 C-16.55015625 32.734375 -16.2253125 32.21875 -15.890625 31.6875 C-14.54185197 28.45044473 -14.61017812 25.7479631 -14.625 22.25 C-14.61984375 21.033125 -14.6146875 19.81625 -14.609375 18.5625 C-14.85947196 15.44364381 -15.31632425 13.88176405 -16.875 11.25 C-17.375 8.8125 -17.375 8.8125 -16.875 6.25 C-11.34375979 0.71875979 -7.58424453 0.09786122 0 0 Z M-6.875 16.25 C-6.875 19.22 -6.875 22.19 -6.875 25.25 C-6.545 25.25 -6.215 25.25 -5.875 25.25 C-5.875 22.28 -5.875 19.31 -5.875 16.25 C-6.205 16.25 -6.535 16.25 -6.875 16.25 Z M-0.875 18.25 C-0.875 19.9 -0.875 21.55 -0.875 23.25 C-0.545 23.25 -0.215 23.25 0.125 23.25 C0.125 21.6 0.125 19.95 0.125 18.25 C-0.205 18.25 -0.535 18.25 -0.875 18.25 Z " fill="#183866" transform="translate(202.875,69.75)"/>
<path d="M0 0 C0.66 0 1.32 0 2 0 C4.95232936 6.0227519 4.95232936 6.0227519 5.125 9.5625 C3.64913982 12.76019706 1.51142606 14.22630565 -1.22265625 16.37890625 C-3.08408009 18.07668843 -4.08389525 19.59372482 -5.25 21.8125 C-7 25 -7 25 -10 26 C-11.33525717 26.07973476 -12.67412083 26.10771338 -14.01171875 26.09765625 C-15.14770508 26.09282227 -15.14770508 26.09282227 -16.30664062 26.08789062 C-17.09232422 26.07951172 -17.87800781 26.07113281 -18.6875 26.0625 C-19.48478516 26.05798828 -20.28207031 26.05347656 -21.10351562 26.04882812 C-23.06904257 26.0370585 -25.03453085 26.01912348 -27 26 C-27.36561899 21.51355035 -27.36561899 21.51355035 -25.8125 19.33203125 C-20.41335124 14.80558973 -14.60877083 11.12363257 -8.54882812 7.55200195 C-4.8971898 5.36513274 -2.41715558 3.58860983 0 0 Z " fill="#A5292E" transform="translate(122,203)"/>
<path d="M0 0 C0.99 0.33 1.98 0.66 3 1 C5.36936837 6.72353594 7.28579197 13.76760145 5.4375 19.8515625 C4.40388227 24.92736384 6.21624868 30.55307449 8.625 35 C9.07875 35.66 9.5325 36.32 10 37 C10 37.66 10 38.32 10 39 C4.06 39 -1.88 39 -8 39 C-6 33 -6 33 -4.9375 30.625 C-3.66128931 27.05161007 -3.3104186 23.78710693 -3 20 C-3.33 19.34 -3.66 18.68 -4 18 C-4.125 14.4375 -4.125 14.4375 -4 11 C-3.67 10.67 -3.34 10.34 -3 10 C-2.63272554 8.50794753 -2.3050154 7.00601352 -2 5.5 C-1.11111111 1.11111111 -1.11111111 1.11111111 0 0 Z " fill="#183866" transform="translate(201,29)"/>
<path d="M0 0 C6.34196169 1.51449831 11.07897757 5.30077619 16.3125 9 C39.05219588 24.74894755 64.21815549 40.52437381 93.25 36.3125 C98.30917908 35.31848785 103.03404252 33.70532224 107.8203125 31.8046875 C110 31 110 31 112 31 C108.12461832 39.43356871 101.82714542 42.92853715 93.37890625 46.15234375 C92.59386719 46.43207031 91.80882812 46.71179688 91 47 C91.84304688 47.32613281 92.68609375 47.65226562 93.5546875 47.98828125 C94.65039062 48.42527344 95.74609375 48.86226562 96.875 49.3125 C97.96554687 49.74175781 99.05609375 50.17101562 100.1796875 50.61328125 C103 52 103 52 105 55 C104.34 54.731875 103.68 54.46375 103 54.1875 C102.01 53.795625 101.02 53.40375 100 53 C99.39542969 52.75894531 98.79085937 52.51789063 98.16796875 52.26953125 C93.50253237 50.45672855 88.87602582 49.13193457 84 48 C84 47.34 84 46.68 84 46 C84.7734375 45.84144531 85.546875 45.68289062 86.34375 45.51953125 C94.15596231 43.76951834 101.37758228 41.93362658 106 35 C105.41992188 35.20496094 104.83984375 35.40992188 104.2421875 35.62109375 C103.46101563 35.89050781 102.67984375 36.15992188 101.875 36.4375 C101.10929687 36.70433594 100.34359375 36.97117188 99.5546875 37.24609375 C79.40084994 43.19363297 58.12251839 36.53043038 40.234375 27.046875 C31.86338153 22.44225914 23.95999215 17.10975796 16.1015625 11.69091797 C14.09303208 10.30809948 12.07791814 8.93525343 10.0625 7.5625 C9.12192749 6.90628662 9.12192749 6.90628662 8.16235352 6.23681641 C4.80844778 3.95816391 2.06476212 2.42421616 -2 2 C-1.34 1.34 -0.68 0.68 0 0 Z " fill="#F1E1E2" transform="translate(284,197)"/>
<path d="M0 0 C0.99 0.33 1.98 0.66 3 1 C2.20335937 1.45439453 2.20335937 1.45439453 1.390625 1.91796875 C-2.93329703 4.48233857 -6.1035653 6.77603273 -9 11 C-7.69577591 10.75404839 -7.69577591 10.75404839 -6.36520386 10.50312805 C-3.21353602 10.03192554 -0.33734343 9.90389521 2.84326172 9.94995117 C3.97238983 9.96293747 5.10151794 9.97592377 6.26486206 9.98930359 C8.07895065 10.01586784 8.07895065 10.01586784 9.9296875 10.04296875 C12.52603386 10.06537692 15.1223886 10.08683012 17.71875 10.10742188 C21.78437686 10.1429848 25.84971557 10.18535169 29.91503906 10.24682617 C56.65275918 10.90903416 56.65275918 10.90903416 81 1 C81.66 0.67 82.32 0.34 83 0 C84.33838733 2.45570175 85.67086232 4.91429916 87 7.375 C87.3815625 8.07367188 87.763125 8.77234375 88.15625 9.4921875 C91 14.7734375 91 14.7734375 91 17 C99.36725665 17.3048798 106.6175937 17.35295913 114.6328125 14.65625 C117.18661028 13.94826646 119.36272201 13.88737603 122 14 C115.22081112 18.51945925 107.47545199 19.29375601 99.5 19.375 C98.80559814 19.38869629 98.11119629 19.40239258 97.39575195 19.41650391 C94.64988937 19.39156909 92.55754377 19.37046507 90.23046875 17.82421875 C88.61257636 15.42562908 87.18623226 12.98484056 85.8125 10.4375 C85.28269531 9.46683594 84.75289063 8.49617187 84.20703125 7.49609375 C83 5 83 5 83 3 C82.21238281 3.39832031 81.42476563 3.79664063 80.61328125 4.20703125 C79.52402344 4.73683594 78.43476562 5.26664063 77.3125 5.8125 C76.25675781 6.33457031 75.20101562 6.85664063 74.11328125 7.39453125 C64.3885089 11.53419411 54.35043417 12.43149099 43.90234375 12.2578125 C42.10815758 12.24788773 42.10815758 12.24788773 40.27772522 12.23776245 C36.49737337 12.21460029 32.7176372 12.17096059 28.9375 12.125 C25.15386824 12.08969997 21.37027549 12.0588878 17.58656311 12.03366089 C15.24571662 12.01695415 12.9049025 11.9940487 10.56419373 11.96365356 C3.32003268 11.89809371 -3.79230546 12.27223889 -11 13 C-10.29414435 8.687767 -9.48099179 7.04413796 -6.0625 4.25 C-5.35222656 3.65703125 -4.64195313 3.0640625 -3.91015625 2.453125 C-2 1 -2 1 0 0 Z " fill="#F7EEEE" transform="translate(22,247)"/>
<path d="M0 0 C1.60875 1.11375 1.60875 1.11375 3.25 2.25 C15.02752089 9.60050949 27.57546063 10.15664867 41.0390625 10.0625 C42.27868744 10.05871338 43.51831238 10.05492676 44.79550171 10.05102539 C49.4074675 10.03679239 54.01936199 10.01347566 58.63128662 9.98962402 C63.16303734 9.96669524 67.69477643 9.95136442 72.2265625 9.9375 C74.01267441 9.92505249 74.01267441 9.92505249 75.83486938 9.91235352 C76.94977753 9.90905029 78.06468567 9.90574707 79.21337891 9.90234375 C80.18852448 9.89710693 81.16367004 9.89187012 82.16836548 9.88647461 C85.18180558 10.00728892 88.03813845 10.44553957 91 11 C90.01 9.02 89.02 7.04 88 5 C91 6 91 6 93 9 C93 10.32 93 11.64 93 13 C92.28293884 12.927314 91.56587769 12.85462799 90.8270874 12.77973938 C83.23157364 12.07021397 75.76368035 11.92165304 68.140625 12.04296875 C65.70052898 12.06535922 63.26042423 12.08681438 60.8203125 12.10742188 C57.0378382 12.14438496 53.25582504 12.18740849 49.47363281 12.24682617 C15.99376497 12.7463629 15.99376497 12.7463629 1 4 C-1.31 8.29 -3.62 12.58 -6 17 C-6.99 17 -7.98 17 -9 17 C-8.57074219 16.30519531 -8.14148438 15.61039062 -7.69921875 14.89453125 C-5.93070958 11.88196736 -4.36079267 8.81849184 -2.8125 5.6875 C-2.01779297 4.08455078 -2.01779297 4.08455078 -1.20703125 2.44921875 C-0.80871094 1.64097656 -0.41039062 0.83273438 0 0 Z " fill="#F8EFF0" transform="translate(301,247)"/>
<path d="M0 0 C4.60853797 0.72008406 8.67237409 2.31295939 13 4 C10.50935112 4.68707555 8.62113708 5 6 5 C12.18430663 10.85881681 19.47814947 14.1029631 28 15 C28 15.66 28 16.32 28 17 C24.04 17.66 20.08 18.32 16 19 C18 17 18 17 21 16 C19.85724609 15.61521484 19.85724609 15.61521484 18.69140625 15.22265625 C10.83266652 12.30874152 5.19000666 8.6709934 0 2 C0 1.34 0 0.68 0 0 Z " fill="#F8F1F1" transform="translate(9,228)"/>
<path d="M0 0 C0.99 0.33 1.98 0.66 3 1 C2.20335937 1.45439453 2.20335937 1.45439453 1.390625 1.91796875 C-2.93329703 4.48233857 -6.1035653 6.77603273 -9 11 C-7.75645752 10.75552124 -7.75645752 10.75552124 -6.48779297 10.50610352 C-2.69846836 9.95624562 0.98731179 9.87382514 4.8046875 9.90234375 C5.8906572 9.90446617 5.8906572 9.90446617 6.99856567 9.90663147 C9.29075407 9.91218925 11.58284157 9.92473367 13.875 9.9375 C15.43749858 9.94252047 16.99999871 9.94708241 18.5625 9.95117188 C22.37503835 9.96214481 26.18750212 9.9793799 30 10 C30 10.33 30 10.66 30 11 C28.77651855 11.03758423 28.77651855 11.03758423 27.52832031 11.07592773 C24.44181001 11.17224468 21.35540568 11.27138672 18.26904297 11.37231445 C16.30052279 11.43586885 14.33190243 11.49629596 12.36328125 11.55664062 C4.54841345 11.81449159 -3.21575026 12.25851291 -11 13 C-10.29414435 8.687767 -9.48099179 7.04413796 -6.0625 4.25 C-5.35222656 3.65703125 -4.64195313 3.0640625 -3.91015625 2.453125 C-2 1 -2 1 0 0 Z " fill="#EBD4D5" transform="translate(22,247)"/>
<path d="M0 0 C3 1 3 1 5 4 C5 5.32 5 6.64 5 8 C4.30487305 7.93433838 3.60974609 7.86867676 2.89355469 7.80102539 C-5.31689666 7.06645576 -13.51228005 6.69976561 -21.75 6.4375 C-23.03132813 6.39431641 -24.31265625 6.35113281 -25.6328125 6.30664062 C-28.75513066 6.20178666 -31.87751121 6.09961982 -35 6 C-35 5.67 -35 5.34 -35 5 C-30.55257542 4.97516899 -26.10518822 4.95707817 -21.65771484 4.94506836 C-20.14663998 4.94005838 -18.63556991 4.93324856 -17.12451172 4.92456055 C-14.94497488 4.91234824 -12.76550247 4.90673822 -10.5859375 4.90234375 C-8.62213135 4.89448853 -8.62213135 4.89448853 -6.61865234 4.88647461 C-3.30986487 4.99027883 -0.24404982 5.36567632 3 6 C2.01 4.02 1.02 2.04 0 0 Z " fill="#EEDCDD" transform="translate(389,252)"/>
<path d="M0 0 C6.625 -0.25 6.625 -0.25 10 2 C12.59239441 3.292056 15.20433468 4.53771272 17.8203125 5.78125 C20 7 20 7 21 9 C20.34 8.731875 19.68 8.46375 19 8.1875 C18.01 7.795625 17.02 7.40375 16 7 C15.09314453 6.63841797 15.09314453 6.63841797 14.16796875 6.26953125 C9.50253237 4.45672855 4.87602582 3.13193457 0 2 C0 1.34 0 0.68 0 0 Z " fill="#F1E1E2" transform="translate(368,243)"/>
<path d="M0 0 C0.99 0.33 1.98 0.66 3 1 C2.45730469 1.32613281 1.91460937 1.65226563 1.35546875 1.98828125 C0.64003906 2.42527344 -0.07539063 2.86226562 -0.8125 3.3125 C-1.87404297 3.95638672 -1.87404297 3.95638672 -2.95703125 4.61328125 C-5.73394683 6.49818571 -7.66712104 7.94083969 -8.6875 11.1875 C-8.790625 11.785625 -8.89375 12.38375 -9 13 C-9.66 13 -10.32 13 -11 13 C-10.51696726 8.68986172 -9.3982201 6.9764837 -6.0625 4.25 C-5.35222656 3.65703125 -4.64195313 3.0640625 -3.91015625 2.453125 C-2 1 -2 1 0 0 Z " fill="#F4EAEA" transform="translate(22,247)"/>
<path d="M0 0 C3.3 0.66 6.6 1.32 10 2 C10 2.66 10 3.32 10 4 C6.04 4.66 2.08 5.32 -2 6 C0 4 0 4 3 3 C2.01 2.67 1.02 2.34 0 2 C0 1.34 0 0.68 0 0 Z " fill="#F0DFE0" transform="translate(27,241)"/>
<path d="" fill="#183866" transform="translate(0,0)"/>
</svg>
